<?xml version="1.0" encoding="UTF-8"?>
<svg width="280mm" height="250mm" version="1.0" viewBox="0 0 793.7 708.66" xmlns="http://www.w3.org/2000/svg" xmlns:cc="http://creativecommons.org/ns#" xmlns:dc="http://purl.org/dc/elements/1.1/" xmlns:rdf="http://www.w3.org/1999/02/22-rdf-syntax-ns#">
 <metadata>Created by potrace 1.15, written by Peter Selinger 2001-2017
  <rdf:RDF>
   <cc:Work rdf:about="">
    <dc:format>image/svg+xml</dc:format>
    <dc:type rdf:resource="http://purl.org/dc/dcmitype/StillImage"/>
    <dc:title/>
   </cc:Work>
  </rdf:RDF>
 </metadata>
 <g transform="translate(53.847 49.208)">
  <path d="m487.8 1.4c-9.3 3.3-34.9 26.4-43.5 39.1-18.1 27-21 55.6-9.3 90.8 5.3 15.8 12.6 30.5 26 52.2 12.3 19.9 28.9 52.6 34.6 68 2 5.5 5.2 16.1 7 23.5 5.2 20.6 12.9 34.8 19.7 36.5 3.3 0.9 6.7-1.7 13-10 14.3-18.8 41.2-73.9 48-98.5 3.5-12.5 3.8-16.9 1.7-21.7-4.6-10.5-19.1-30.4-45.3-62.4-26.1-31.8-35.2-45.5-39.1-58.8-2-6.8-2-19.7-0.1-31.6 1.9-11.3 1.9-18.6 0.1-23-2.3-5.4-5.9-6.6-12.8-4.1z"/>
  <path d="m240.6 43.1c-43 37.8-56.2 50.4-62.4 59.6-11.5 16.9-12.7 27.4-11.5 93.6l0.8 39.9 11.9-28.4c21.1-50.1 28.2-63.6 38.1-72.6 6.4-5.9 11.6-7.8 23-8.7 10.5-0.8 17-2.7 22.7-6.5 6.5-4.3 10.9-10.7 16.9-24.4 6.2-14 10.8-19.4 19-22.2 4.8-1.7 8.7-1.9 33.9-2 31.1 0 36.2-0.8 40.9-5.8 6.6-7.1-6.8-19.5-34.7-32.2-14.7-6.6-57.4-24.4-58.7-24.4-0.6 0-18.6 15.3-39.9 34.1z"/>
  <path d="m331.2 95c-15.2 2.1-22.2 6-22.2 12.2 0 6 5.2 11.9 20 22.6 17.3 12.5 21.6 16.6 25.2 23.9 2.8 5.8 3.2 7.6 3.6 17.1 0.2 6.4-0.5 19.9-1.7 33.3-2.8 30.1-2.7 51.7 0.3 54.6 3.6 3.6 50.6-47.1 66.6-71.7 3.4-5.3 4.1-7.1 3.6-9.8-0.6-4.1-18.5-49.1-23.1-58.2-6.5-13-13.1-19.4-23.1-22.6-5.8-1.8-39.2-2.8-49.2-1.4z"/>
  <path d="m289.9 141c-15.1 8-24.7 41.1-17 58.4 4.2 9.6 26.9 28.9 45.3 38.6 8.9 4.7 11.9 5 15.5 1.4 2.3-2.3 2.5-3.1 2-7.9-0.7-7-2.7-10.6-9.3-16.9-8.6-8.2-9.6-11.7-10.4-37.6-0.7-23.1-1.3-25.6-6.7-32-5-6-12.7-7.6-19.4-4z"/>
  <path d="m229 166.6c-4.7 4.2-9.7 12.8-13.5 22.9-6.4 17.1-12.6 49.5-12.7 66-0.1 8.8 0.2 10.9 2.5 15.7 2.9 6.4 8.7 13.2 16.7 19.3 12.9 10 42.1 23.9 72.5 34.6 32.1 11.4 39 14.1 55.4 22 22.4 10.8 33.4 18.3 44.4 30.3 4.9 5.3 10.9 10.8 13.4 12.3 4.4 2.6 4.6 2.6 5.9 0.8 1.9-2.6 1.8-6-1.1-19.9-9-44.1-27.8-68.9-64.3-84.6-7.9-3.4-17.7-6.7-39.7-13.3-31.8-9.5-52.1-26.4-58.9-49-2.9-9.4-4.6-21.8-4.6-32.7 0-9.3-1.6-18.2-4-23.1-3.2-6.1-6.3-6.4-12-1.3z"/>
  <path d="m0.7 197.6c-2.2 2.3 1.1 9.9 10.9 24.9 15.8 24.3 26 55.8 32.4 100 1.7 12.1 4.2 26.5 5.5 32 9.6 40.7 28.7 67.8 58.1 82.4 10.3 5.1 18.1 7.4 34.5 10.2 11.4 2 17 2.4 36.9 2.4 23.5 0 29.1-0.6 33.4-3.8 1.8-1.3 1.8-1.9 0.7-7.8-1.9-9.6-7-22.6-19.8-50.4-18.7-40.6-25.4-59.5-27.8-78.6-1.6-12.7-4-22.4-8.5-34.6-9.7-26.5-20.9-43.3-32.6-48.8-6.7-3.2-16.1-4.4-33.4-4.5-25.8 0-41-3.6-65-15-15.7-7.5-23.6-10.1-25.3-8.4z"/>
  <path d="m652.5 208.9c-8.9 1.5-20.8 5.1-28.5 8.8-13.1 6.3-29 23.9-41.2 46.1-15.7 28.2-29.9 50-43.3 66.2-11 13.2-15.1 19.2-21 30.2-11.1 21.1-15.3 34.3-21 66.3-1.9 11-3.7 21-4 22.2l-0.5 2.3h29.7c46.8 0 60-3.4 71.3-18.4 10.7-14.1 14.3-33.2 15.5-81.6 0.9-34.7 2.9-48.1 9.4-62.5 5.9-13 18.8-28.9 34.2-42.3 10.7-9.4 18.4-14.2 24.7-15.3 6.1-1.1 11.2-6.2 11.2-11.2 0-3.8-3.5-7.8-8.5-9.7-3.8-1.5-21.4-2.1-28-1.1z"/>
  <path d="m446.4 225.8c-8 5.8-21.1 20.9-24.9 28.4-7.8 15.9-5.6 29.4 12.3 75.9 11.2 29 16 62.4 14.1 98.3-1.3 24.4 0 36.6 4 36.6 4.4 0 10.4-12.4 17.4-36 10-33.6 13.9-63 14-105.5 0-27.6-0.8-38.5-4.4-57.9-3.3-17.8-8.7-29.2-18.5-38.9-4.7-4.6-8.5-4.9-14-0.9z"/>
  <path d="m202.4 315.1c-2.6 2.9-3.2 17.9-1 27.2 8.3 35.5 53 107.9 80.3 129.9 7.6 6.2 22.2 14.8 31.1 18.4 22.7 9.1 39.9 6.8 62.7-8.6 20.4-13.8 29.5-30.3 26.5-47.9-1.9-11.1-7.1-20.3-17.5-30.6-4.9-5-11.9-11-15.5-13.3-16-10.5-38.1-19-62-23.6-25.3-5-48.3-13.6-63.1-23.7-3.5-2.4-10.9-8.6-16.5-13.9-10.5-10-18.5-16-21.4-16-0.9 0-2.5 0.9-3.6 2.1z"/>
  <path d="m167.4 477c-6.6 1.2-26 7.1-37.3 11.3-24.2 9.1-38.3 22.7-32.6 31.3 4.7 7.3 20.2 9 47.5 5.4 34.1-4.5 45-0.2 85.5 33.5 30.2 25.2 51.7 37.1 78 43.1 16.8 3.8 39.2 2.1 58.9-4.6 20-6.7 34.9-15.5 66-38.9 24.5-18.4 38.1-27.3 53.7-35.1 22.5-11.3 39.5-16 58.1-16 13 0 18.4 1 37.3 6.6 28.3 8.6 40.5 6.7 29.4-4.5-6.2-6.1-14.6-11.4-32.4-20.1-20.4-10-26.7-12.1-38-12.7-16.2-0.9-26.2 1.8-88 23.7-61.2 21.7-78.9 26.9-99.3 29.1-26.6 2.8-45.4-2.6-95.9-28-18.6-9.3-40.3-18.5-51.1-21.7-7-2.1-11.3-2.7-21.7-3-7.1-0.1-15.3 0.1-18.1 0.6z"/>
 </g>
</svg>
